#N canvas 838 267 418 319 10;
#X obj 16 23 dumpOSC 12000;
#X floatatom 16 119 5 0 0 0 - - -;
#X obj 129 135 bng 15 250 50 0 empty empty empty 17 7 0 10 -262144
-1 -1;
#X obj 129 186 bng 15 250 50 0 empty empty empty 17 7 0 10 -262144
-1 -1;
#X obj 16 67 OSCroute /fre;
#X obj 16 147 s midato;
#X obj 129 239 s midato;
#X msg 129 215 0;
#X obj 155 183 loadbang;
#X obj 155 200 bng 15 250 50 0 empty empty empty 17 7 0 10 -262144
-1 -1;
#X obj 31 98 hsl 128 15 0 1 0 0 empty empty empty -2 -8 0 10 -262144
-1 -1 6900 1;
#X obj 129 158 delay 15000;
#X connect 0 0 4 0;
#X connect 1 0 2 0;
#X connect 1 0 5 0;
#X connect 2 0 11 0;
#X connect 3 0 7 0;
#X connect 4 0 1 0;
#X connect 7 0 6 0;
#X connect 8 0 9 0;
#X connect 9 0 7 0;
#X connect 10 0 1 0;
#X connect 11 0 3 0;
